<svg xmlns="http://www.w3.org/2000/svg" version="1.1" xmlns:xlink="http://www.w3.org/1999/xlink" xmlns:svgjs="http://svgjs.dev/svgjs" width="1000" height="320" viewBox="0 0 1000 320"><g transform="matrix(1,0,0,1,-0.6058136487050092,0.1887543432634402)"><svg viewBox="0 0 396 127" data-background-color="#ffffff" preserveAspectRatio="xMidYMid meet" height="320" width="1000" xmlns="http://www.w3.org/2000/svg" xmlns:xlink="http://www.w3.org/1999/xlink"><g id="tight-bounds" transform="matrix(1,0,0,1,0.23990220488718705,-0.07491033019414317)"><svg viewBox="0 0 395.52 127.14982221017684" height="127.14982221017684" width="395.52"><g><svg viewBox="0 0 395.52 127.14982221017684" height="127.14982221017684" width="395.52"><g transform="matrix(1,0,0,1,0,65.33591091867127)"><svg viewBox="0 0 395.52 61.813911291505555" height="61.813911291505555" width="395.52"><g id="textblocktransform"><svg viewBox="0 0 395.52 61.813911291505555" height="61.813911291505555" width="395.52" id="textblock"><g><svg viewBox="0 0 395.52 61.813911291505555" height="61.813911291505555" width="395.52"><g transform="matrix(1,0,0,1,0,0)"><svg width="395.52" viewBox="-11.469240188598633 -18.637849807739258 294.2255554199219 45.98308563232422" height="61.813911291505555" data-palette-color="#001f3f"><path d="M10.68-2.199l-0.318 1.013c-0.109 0.267-0.236 0.635-0.383 1.105v0l-20.015-5.311zM-11.375-0.509l20.557 3.168c-0.222 0.782-0.383 1.499-0.483 2.152v0zM-8.025-10.171l20.716 3.192-0.95 2.029zM-11.469 4.566l19.786 3.049c-0.011 0.99-0.001 1.733 0.031 2.231v0zM-4.827-14.768l20.399 3.144c-0.619 0.822-1.068 1.461-1.348 1.917v0zM-7.272 10.353l16.367 2.522c0.325 0.866 0.744 1.585 1.256 2.157v0zM3.085-18.638l18.175 2.801c-1.097 0.465-1.962 0.915-2.596 1.35v0zM20.708 18.014v0c-4.349-0.67-7.331-1.997-8.948-3.979-1.623-1.984-2.164-4.735-1.622-8.254v0c0.229-1.489 0.808-3.646 1.736-6.471v0c1.949-5.777 4.403-9.817 7.361-12.12 2.952-2.304 7.172-3.033 12.661-2.187v0c1.278 0.197 2.717 0.554 4.318 1.07 1.601 0.51 2.751 1.014 3.449 1.513v0l-4.125 7.468c-1.962-0.795-3.832-1.329-5.612-1.603-1.772-0.273-3.067-0.297-3.884-0.072-0.812 0.232-1.383 0.853-1.713 1.861v0l-4.473 13.202c1.196 0.468 2.453 0.803 3.771 1.006v0c2.794 0.43 5.411 0.409 7.851-0.065v0l-2.17 8.57c-2.346 0.563-5.213 0.583-8.6 0.061zM56.913 16.685l-2.562 4.954-10.424-1.075 17.064-31.165 15.329 1.58-1.069 32.813-10.475-1.079 0.323-5.184zM60.999 8.732l4.178 0.431 0.94-9.122-0.527-0.054zM43.508 17.988l-1.231 2.195-21.13-4.5zM46.168 13.155l-1.232 2.195-21.13-4.499zM48.763 8.366l-1.172 2.201-21.13-4.5zM51.417 3.583l-1.222 2.196-21.08-4.495zM54.021-1.206l-1.171 2.202-21.091-4.496zM59.27-10.778l-1.165 2.142-21.037-4.43zM56.616-5.995l-1.166 2.142-21.036-4.43zM37.068-13.066l21.037 4.43 1.165-2.142zM96.967-7.52l15.704 0.711c5.967 0.27 8.83 3.076 8.588 8.417v0c-0.1 2.198-0.524 4.277-1.273 6.239v0c-1.396 3.707-3.431 6.131-6.106 7.271v0l2.964 11.046-10.939-0.496-1.967-9.849-2.147-0.097-2.11 9.664-9.95-0.45zM103.574 7.725l2.298 0.104c1.185 0.054 2.09-0.035 2.715-0.268 0.624-0.232 1.078-0.962 1.36-2.19 0.283-1.228 0.43-1.983 0.443-2.263v0c0.032-0.699-0.218-1.158-0.748-1.375-0.531-0.218-1.409-0.354-2.635-0.41v0l-1.988-0.09zM88.696 22.366l-0.526 2.339-22.09-3.363zM90.932 12.347l-0.526 2.339-22.091-3.363zM93.116 2.376l-0.527 2.338-22.04-3.36zM94.232-2.609l-0.526 2.339-22.041-3.361zM89.815 17.332l-0.526 2.338-22.09-3.363zM95.349-7.593l-0.526 2.338-22.041-3.36zM91.999 7.36l-0.526 2.339-22.041-3.361zM134.773 6.28v0l-22.234-2.229 22.59-0.133c-0.176 0.701-0.295 1.488-0.356 2.362zM113.98-0.987l22.529-0.133-0.776 2.314zM113.039 9.078l21.75-0.128c0.072 0.946 0.217 1.732 0.434 2.358v0zM142.172 16.297v0l-27.733-2.197 22.579-0.133c1.16 1.113 2.878 1.89 5.154 2.33zM117.88-6.04l22.53-0.133c-0.797 0.531-1.559 1.253-2.288 2.163v0zM132.402 21.334l-18.834-2.199 19.6-0.115zM130.752 26.424l-18.044-2.203 18.82-0.111zM132.529 26.044l2.89-8.657c2.938 0.783 5.62 1.167 8.046 1.152 2.427-0.014 4.409-0.129 5.949-0.345v0l0.404-2.622-4.352-0.395c-3.322-0.294-5.676-1.03-7.063-2.208-1.387-1.185-2.087-2.858-2.1-5.018v0c-0.006-0.947 0.092-1.997 0.291-3.152v0c0.78-4.478 2.229-7.56 4.346-9.245 2.123-1.693 5.395-2.552 9.815-2.578 4.42-0.026 8.326 0.388 11.717 1.241v0l-2.67 8.406c-3.043-0.509-5.481-0.758-7.315-0.747-1.833 0.011-3.416 0.107-4.748 0.288v0l-0.395 2.572 3.512 0.349c3.562 0.359 6.097 1.191 7.605 2.495 1.514 1.298 2.278 3.05 2.291 5.257v0c0.013 2.233-0.447 4.539-1.379 6.918v0c-0.513 1.23-1.057 2.256-1.632 3.08-0.568 0.823-1.298 1.524-2.188 2.103-0.89 0.585-1.701 1.027-2.432 1.324-0.732 0.304-1.674 0.53-2.826 0.677v0c-1.605 0.256-3.594 0.391-5.968 0.405v0c-4.333 0.026-8.266-0.408-11.797-1.3zM202.011-8.444l-1.017 8.455-7.217 0.432-2.788 24.58-9.943 0.594 2.789-24.58-7.167 0.428 1.017-8.455zM179.698 23.173l-0.278 2.381-22.322-1.03zM180.872 12.975l-0.279 2.381-22.321-1.03zM181.46 7.901l-0.278 2.381-22.312-1.031zM182.048 2.827l-0.278 2.381-22.311-1.031zM180.283 18.049l-0.278 2.381-22.321-1.03zM175.42-1.816l-0.219 2.377-22.321-1.03zM176.008-6.89l-0.279 2.381-22.261-1.034zM222.43 14.165l4.115-0.46c1.352-0.151 2.34-0.429 2.965-0.834 0.619-0.404 0.969-1.208 1.049-2.411v0l0.884-13.813-4.164 0.465c-1.318 0.147-2.291 0.423-2.916 0.828-0.619 0.404-0.969 1.208-1.049 2.411v0zM228.005-11.985v0c4.406-0.492 7.643 0.019 9.709 1.533 2.067 1.507 3.299 4.049 3.699 7.627 0.399 3.578 0.253 7.381-0.437 11.408-0.697 4.035-2.147 7.273-4.35 9.713-2.202 2.446-5.656 3.931-10.36 4.456-4.704 0.525-8.09 0.031-10.157-1.483-2.067-1.507-3.299-4.049-3.699-7.627v0c-0.19-1.703-0.199-3.976-0.026-6.819 0.172-2.85 0.545-5.337 1.12-7.46 0.569-2.116 1.449-3.999 2.64-5.647v0c2.282-3.173 6.236-5.073 11.861-5.701zM210.913 5.901l-0.043 1.061c-0.035 0.286-0.062 0.674-0.081 1.166v0l-20.707 0.097zM190.063 13.289l20.672-2.307c-0.01 0.813 0.022 1.547 0.095 2.203v0zM190.776 3.087l20.831-2.325-0.388 2.207zM191.297 18.212l19.896-2.22c0.248 0.958 0.452 1.674 0.612 2.145v0zM192.663-2.185l20.513-2.289c-0.383 0.955-0.65 1.689-0.801 2.202v0zM196.859 22.703l16.458-1.837c0.54 0.751 1.132 1.336 1.776 1.754v0zM199.291-7.986l18.277-2.039c-0.938 0.735-1.655 1.396-2.154 1.981v0zM272.765 7.471v0l-6.409 1.082-0.024 8.026-9.821 1.659 0.227-33.252 15.501-2.618c5.857-0.989 9.245 1.238 10.164 6.682v0c0.436 2.583 0.469 4.978 0.097 7.184-0.371 2.206-0.894 3.995-1.568 5.366-0.668 1.37-1.697 2.605-3.086 3.705-1.395 1.108-3.088 1.83-5.081 2.166zM266.409 0.036l2.268-0.383c1.17-0.198 2.036-0.476 2.597-0.834 0.561-0.358 0.849-1.019 0.862-1.982v0c0.017-2.619 0.006-4.051-0.035-4.294v0c-0.111-0.657-0.443-1.044-0.997-1.16-0.548-0.124-1.338-0.099-2.371 0.076v0l-2.278 0.385zM254.957 15.944l-0.021 2.397-22.303 1.372zM255.029 5.679l-0.021 2.397-22.303 1.372zM255.06-4.529l-0.021 2.397-22.253 1.364zM255.101-9.637l-0.022 2.397-22.253 1.364zM254.989 10.787l-0.021 2.397-22.303 1.372zM255.141-14.745l-0.021 2.397-22.254 1.364zM255.02 0.579l-0.021 2.397-22.253 1.364z" opacity="1" transform="matrix(1,0,0,1,0,0)" fill="#001f3f" class="wordmark-text-0" data-fill-palette-color="primary" id="text-0"></path></svg></g></svg></g></svg></g></svg></g><g transform="matrix(1,0,0,1,113.9787199990379,0)"><svg viewBox="0 0 167.56256000192417 61.81391129150556" height="61.81391129150556" width="167.56256000192417"><g><svg xmlns="http://www.w3.org/2000/svg" xmlns:xlink="http://www.w3.org/1999/xlink" version="1.1" x="0" y="0" viewBox="0.29627254605293274 33.946922302246094 99.40641021728516 36.67107391357422" enable-background="new 0 33.947 100 36.669" xml:space="preserve" width="167.56256000192417" height="61.81391129150556" class="icon-icon-0" data-fill-palette-color="accent" id="icon-0"><g fill="#001f3f" data-fill-palette-color="accent"><path d="M15.524 55.357c-4.213 0-7.629 3.418-7.629 7.631s3.416 7.63 7.629 7.63c4.215 0 7.63-3.417 7.63-7.63S19.738 55.357 15.524 55.357zM15.524 66.189c-1.778 0-3.219-1.441-3.219-3.22s1.441-3.221 3.219-3.221c1.777 0 3.219 1.442 3.219 3.221C18.742 64.748 17.301 66.189 15.524 66.189z" fill="#001f3f" data-fill-palette-color="accent"></path><path d="M82.53 55.355c-4.215 0-7.632 3.417-7.632 7.629 0 4.214 3.417 7.631 7.632 7.631 4.212 0 7.63-3.417 7.63-7.631C90.16 58.772 86.742 55.355 82.53 55.355zM82.53 66.189c-1.778 0-3.222-1.441-3.222-3.22s1.443-3.221 3.222-3.221 3.223 1.442 3.223 3.221S84.309 66.189 82.53 66.189z" fill="#001f3f" data-fill-palette-color="accent"></path><path d="M78.23 44.515c0 0-18.764-8.75-24.754-10.018-5.987-1.268-26.597-0.115-28.554 1.151l-11.515 5.64L2.125 46.815 0.298 57.465c0 0-0.05 6.318 0.388 7.773h5.527l0.071-2.25c0-5.103 4.138-9.24 9.243-9.24 5.103 0 9.238 4.138 9.238 9.24l0.158 2.25h48.359l0.007-2.83c0-5.103 3.856-8.87 8.959-8.87s9.523 3.768 9.523 8.87l0.19 2.616c0 0 5.845 0.33 7.688-0.361 0 0 0.69-9.787-2.878-13.357C93.603 48.308 87.213 46.44 78.23 44.515zM25.956 45.896c0 0 2.363-5.01 4.943-6.924 1.911-1.627 12.446-1.583 12.446-1.583l0.389 9.715L25.956 45.896zM71.613 48.198l-24.698-0.978-0.577-9.846c9.154-0.344 19.576 4.549 25.563 8.06C77.89 48.946 71.613 48.198 71.613 48.198z" fill="#001f3f" data-fill-palette-color="accent"></path></g></svg></g></svg></g><g></g></svg></g><defs></defs></svg><rect width="395.52" height="127.14982221017684" fill="none" stroke="none" visibility="hidden"></rect></g></svg></g></svg>